Coordinates
version=1
nRows=14
nColumns=40
inDegrees=yes

Units are S.I. units (second, meters, Newtons, ...)
Angles are in degrees.

endheader
time	pelvis_tilt	pelvis_list	pelvis_rotation	pelvis_tx	pelvis_ty	pelvis_tz	hip_flexion_r	hip_adduction_r	hip_rotation_r	knee_angle_r	knee_angle_r_beta	ankle_angle_r	subtalar_angle_r	mtp_angle_r	hip_flexion_l	hip_adduction_l	hip_rotation_l	knee_angle_l	knee_angle_l_beta	ankle_angle_l	subtalar_angle_l	mtp_angle_l	lumbar_extension	lumbar_bending	lumbar_rotation	arm_flex_r	arm_add_r	arm_rot_r	elbow_flex_r	pro_sup_r	wrist_flex_r	wrist_dev_r	arm_flex_l	arm_add_l	arm_rot_l	elbow_flex_l	pro_sup_l	wrist_flex_l	wrist_dev_l
     19.28500000	     -8.14795493	     -4.56733001	    -13.52047489	      0.97404047	      0.92541901	      0.43191375	     27.17969431	      0.52976636	     -6.50580277	     15.60963492	     15.60963492	      5.12844238	      8.53600495	      2.48796035	     11.69200404	     -5.99891417	    -13.21752288	     21.63194263	     21.63194263	     18.43586466	    -16.21008238	      5.01610390	    -10.31222751	      6.00887152	      2.59759331	    -15.51176961	    -13.15629563	    -15.13642087	     26.66720824	     46.81369856	      0.00000000	      0.00000000	     34.60237256	    -21.00500529	     -9.33568593	     63.67319559	     47.98093965	      0.00000000	      0.00000000
     19.30421429	     -8.07073647	     -4.29947700	    -13.55612832	      0.97414706	      0.92448457	      0.43521159	     26.85156467	      0.36990014	     -7.17784882	     14.31052230	     14.31052230	      5.57809702	     10.58368869	      5.21120394	     10.99188400	     -5.82677760	    -13.52788208	     21.22297036	     21.22297036	     18.18034578	    -16.05901010	      3.43445202	    -10.22238266	      5.79014670	      2.56508160	    -16.76750080	    -12.76742110	    -15.19370137	     28.46144899	     46.69669309	      0.00000000	      0.00000000	     35.47089220	    -21.00376484	    -10.12786497	     65.79483629	     48.05849589	      0.00000000	      0.00000000
     19.32342857	     -7.99670385	     -4.09740447	    -13.51201276	      0.97454308	      0.92354690	      0.43873091	     26.44031438	      0.34645080	     -7.31786033	     13.33327168	     13.33327168	      5.20946354	     11.11284758	      5.45759449	     10.34421027	     -5.72079062	    -13.63930574	     20.98005874	     20.98005874	     18.47346620	    -15.86053500	      3.22209051	    -10.02595587	      5.67598029	      2.55456409	    -17.14437909	    -12.40186165	    -15.09976197	     28.36074794	     46.68545563	      0.00000000	      0.00000000	     36.57809644	    -21.06472769	    -10.26888981	     66.59375082	     48.08691631	      0.00000000	      0.00000000
     19.34264286	     -7.83935369	     -3.96941987	    -13.41780956	      0.97533147	      0.92275477	      0.44236774	     26.02761590	      0.30140783	     -7.60908616	     13.01318700	     13.01318700	      4.79427765	     11.44041806	      5.00524121	      9.53648141	     -5.67757601	    -13.78321521	     20.67677386	     20.67677386	     18.75132587	    -15.50843673	      2.88662652	     -9.96041845	      5.67477346	      2.71949586	    -17.51661041	    -12.09726840	    -15.01215780	     28.27538997	     46.67213254	      0.00000000	      0.00000000	     37.45965401	    -20.86860445	    -10.50005685	     67.70774000	     48.12310578	      0.00000000	      0.00000000
     19.36185714	     -7.78194978	     -3.87961568	    -13.21209486	      0.97632932	      0.92184067	      0.44619339	     25.81592216	      0.27852696	     -7.85124749	     13.27850970	     13.27850970	      4.61388423	     11.17413347	      4.61171589	      8.90411167	     -5.70459799	    -13.68980958	     20.50802399	     20.50802399	     19.02343394	    -15.30409923	      2.71828721	     -9.70420486	      5.76202145	      2.62844241	    -17.52463538	    -11.84548418	    -14.96630416	     28.26261664	     46.66638195	      0.00000000	      0.00000000	     38.20108008	    -20.93542078	    -10.64924813	     68.27987565	     48.14690041	      0.00000000	      0.00000000
     19.38107143	     -7.55371750	     -3.74570226	    -13.05015871	      0.97785473	      0.92107240	      0.45035090	     25.29666973	      0.28945109	     -7.60928567	     13.42308747	     13.42308747	      2.68042243	     10.03551842	     -1.38323315	      7.92323962	     -5.68878959	    -13.94892842	     20.10654673	     20.10654673	     19.09792610	    -14.78252525	      1.78900010	     -9.64452576	      5.76183763	      2.34405354	    -17.17457480	    -11.74391831	    -14.84471311	     27.97318477	     46.64576734	      0.00000000	      0.00000000	     37.95532898	    -20.89016080	    -11.90173356	     70.54451812	     48.24223393	      0.00000000	      0.00000000
     19.40028571	     -7.35776895	     -3.68046738	    -12.84529900	      0.97943481	      0.92060977	      0.45463782	     25.07205189	      0.27995356	     -7.61699975	     14.42020621	     14.42020621	      2.77608588	      9.25223837	     -1.93237603	      6.97815068	     -5.71546900	    -13.91280156	     19.71422629	     19.71422629	     19.33167984	    -14.47218206	      1.77232070	     -9.55461600	      5.88715206	      2.45573866	    -16.98773140	    -11.67388099	    -14.78775275	     27.89721464	     46.64364364	      0.00000000	      0.00000000	     38.36349957	    -20.79065921	    -11.94240189	     70.95456560	     48.25175553	      0.00000000	      0.00000000
     19.41950000	     -7.32546146	     -3.76287157	    -12.54170000	      0.98115980	      0.92018758	      0.45911870	     24.81839931	      0.44889746	     -7.80194132	     15.22150075	     15.22150075	      2.88134221	      8.57234381	     -2.29345440	      6.19991461	     -5.95756340	    -13.73139214	     19.35668636	     19.35668636	     19.54075991	    -14.18228317	      1.76264304	     -9.27877621	      6.24155596	      2.45135371	    -16.66830340	    -11.66235747	    -14.76419778	     27.94203518	     46.64181892	      0.00000000	      0.00000000	     38.56853504	    -20.60499178	    -11.93319973	     71.23474219	     48.25598843	      0.00000000	      0.00000000
     19.43871429	     -7.09557672	     -3.53235701	    -12.39757846	      0.98295566	      0.92000474	      0.46411692	     24.73760350	      0.50730889	     -6.67435330	     16.55974401	     16.55974401	      2.87762713	      6.11896989	     -3.81032199	      5.11256942	     -5.90286461	    -14.17121952	     18.77659764	     18.77659764	     19.69806058	    -13.24981508	      1.68347777	     -9.23459161	      6.11389998	      2.55153620	    -16.18293678	    -11.73458518	    -14.74778945	     27.66334330	     46.65064445	      0.00000000	      0.00000000	     38.27323908	    -20.50944417	    -12.42670073	     72.46133134	     48.30001889	      0.00000000	      0.00000000
     19.45792857	     -6.88508004	     -3.55803933	    -12.16584059	      0.98482162	      0.92009613	      0.46920236	     24.35516336	      0.77230524	     -6.11583146	     17.44197427	     17.44197427	      2.87554312	      4.49840847	     -5.18478535	      4.14536124	     -6.17265598	    -14.41259471	     18.48306417	     18.48306417	     19.85530048	    -12.47483759	      1.63873464	     -9.24046557	      6.29700182	      2.19636493	    -15.30212229	    -11.98708137	    -14.76410825	     27.42263839	     46.65964206	      0.00000000	      0.00000000	     37.62465210	    -20.72511165	    -13.10212860	     73.57349833	     48.34512027	      0.00000000	      0.00000000
     19.47714286	     -6.80082088	     -3.61000049	    -11.84940909	      0.98654749	      0.92031911	      0.47429228	     24.01795835	      0.97455407	     -6.21642200	     18.18957970	     18.18957970	      3.28934882	      3.99414797	     -5.45687442	      3.41060556	     -6.47627969	    -14.28443572	     18.28806425	     18.28806425	     19.80655663	    -12.17952934	      1.71814830	     -9.10579539	      6.54970671	      2.26640680	    -14.78081308	    -12.26843207	    -14.78528893	     27.58420491	     46.65880714	      0.00000000	      0.00000000	     37.36608168	    -20.48378667	    -13.04959482	     73.58388879	     48.33824936	      0.00000000	      0.00000000
     19.49635714	     -6.61873351	     -3.46750057	    -11.62526211	      0.98816216	      0.92074973	      0.47964887	     23.75089870	      1.09966072	     -5.64205064	     19.13162359	     19.13162359	      3.91371674	      2.71368516	     -5.59013726	      2.58653087	     -6.63136080	    -14.57969603	     18.07613054	     18.07613054	     19.74823842	    -11.35943155	      1.76212349	     -9.10469379	      6.50256113	      2.15325617	    -14.09276038	    -12.56406454	    -14.84579149	     27.85035160	     46.65463028	      0.00000000	      0.00000000	     36.88979078	    -20.59603891	    -13.24978051	     73.78795711	     48.34701108	      0.00000000	      0.00000000
     19.51557143	     -6.56132287	     -3.48677863	    -11.30225261	      0.98956159	      0.92129216	      0.48492480	     23.29398895	      1.31914194	     -5.70402683	     19.50482540	     19.50482540	      4.45008322	      2.37355990	     -5.74593291	      2.14375303	     -7.01077731	    -14.44698608	     18.29730136	     18.29730136	     19.54151879	    -11.16820875	      1.81248527	     -9.01272218	      6.65689651	      2.21181904	    -13.45065512	    -12.93945170	    -14.88508758	     28.11037173	     46.65225775	      0.00000000	      0.00000000	     36.42060710	    -20.25183773	    -13.14198810	     73.70265556	     48.33348323	      0.00000000	      0.00000000
     19.53478571	     -6.53684866	     -3.56157065	    -10.96767829	      0.99063768	      0.92184187	      0.49039023	     22.88816659	      1.68945879	     -5.47006900	     19.87150016	     19.87150016	      5.11625898	      1.45341083	     -5.42491703	      2.05965504	     -7.66416185	    -14.64904003	     19.15229992	     19.15229992	     19.43820074	    -10.44687689	      1.59206820	     -8.94810411	      6.84521216	      1.77191946	    -12.51545932	    -13.37177488	    -14.98533824	     28.76948859	     46.63377226	      0.00000000	      0.00000000	     35.55752676	    -20.53906799	    -13.32647192	     73.62615207	     48.33224447	      0.00000000	      0.00000000
